<svg width="375" height="812" viewBox="0 0 375 812" fill="none" xmlns="http://www.w3.org/2000/svg">
<rect width="375" height="812" fill="url(#paint0_linear_3_201)"/>
<g opacity="0.15" clip-path="url(#clip0_3_201)">
<path d="M186.181 219.16L197.049 329.663L202.98 373.757C203.821 382.394 211.409 389 220.49 389H289.719C298.8 389 306.388 382.395 307.229 373.757L322.284 219.159L254.343 197.647L186.181 219.16Z" fill="#00A8CC"/>
<path d="M254.343 197.647L239.629 202.291L292.903 219.16L277.848 373.758C277.006 382.395 269.418 389 260.337 389H289.719C298.8 389 306.387 382.395 307.229 373.757L322.284 219.159L254.343 197.647Z" fill="#0092B1"/>
<path d="M328.251 157.886H180.155L186.181 219.16H322.284L328.251 157.886Z" fill="#D2ECF9"/>
<path d="M298.869 157.886L292.903 219.16H322.284L328.251 157.886H298.869Z" fill="#B5E0F5"/>
<path d="M157.266 102.878H149.282V67.7374H98.0367V102.878H90.0537C66.2561 102.878 46.9642 121.332 46.9642 144.095V151.695C46.9642 159.473 53.556 165.778 61.6873 165.778H185.632C193.763 165.778 200.355 159.473 200.355 151.695V144.095C200.355 121.332 181.063 102.878 157.266 102.878V102.878Z" fill="#D2ECF9"/>
<path d="M157.266 102.878H149.282V67.7374H119.9V102.878H127.884C151.682 102.878 170.974 121.332 170.974 144.095V151.695C170.974 159.473 164.382 165.778 156.25 165.778H185.632C193.763 165.778 200.355 159.473 200.355 151.695V144.095C200.355 121.332 181.063 102.878 157.266 102.878V102.878Z" fill="#B5E0F5"/>
<path d="M185.557 240.771H61.7622C53.5897 240.771 46.9642 234.437 46.9642 226.624V179.857C46.9642 172.081 53.5582 165.778 61.6917 165.778H185.628C193.761 165.778 200.355 172.081 200.355 179.857V226.624C200.355 234.438 193.73 240.771 185.557 240.771V240.771Z" fill="#00A8CC"/>
<path d="M185.628 165.778H156.246C164.38 165.778 170.974 172.082 170.974 179.858V226.625C170.974 234.438 164.348 240.772 156.176 240.772H185.557C193.73 240.772 200.355 234.438 200.355 226.625V179.858C200.355 172.082 193.761 165.778 185.628 165.778V165.778Z" fill="#0092B1"/>
<path d="M200.891 283.63C200.891 275.775 194.43 269.407 186.458 269.407C194.43 269.407 200.891 263.038 200.891 255.184C200.891 247.329 194.43 240.96 186.458 240.96H61.1819C53.2107 240.96 46.749 247.328 46.749 255.184C46.749 263.039 53.2107 269.407 61.1819 269.407C53.2107 269.407 46.749 275.775 46.749 283.63C46.749 291.485 53.2107 297.853 61.1819 297.853C61.1819 297.853 46.9642 298.045 46.9642 315.641V347.782C46.9642 370.547 66.2561 389 90.0538 389H90.1941H157.126H157.266C181.063 389 200.355 370.546 200.355 347.782V315.641C200.355 298.279 186.458 297.853 186.458 297.853C194.43 297.853 200.891 291.485 200.891 283.63Z" fill="#D2ECF9"/>
<path d="M200.891 283.63C200.891 275.774 194.43 269.407 186.458 269.407C194.43 269.407 200.891 263.038 200.891 255.184C200.891 247.328 194.43 240.96 186.458 240.96H157.077C165.048 240.96 171.51 247.328 171.51 255.184C171.51 263.039 165.048 269.407 157.077 269.407C165.048 269.407 171.51 275.774 171.51 283.63C171.51 291.486 165.048 297.853 157.077 297.853C157.077 297.853 170.974 298.279 170.974 315.64V347.782C170.974 370.546 151.682 389.001 127.884 389.001H157.126H157.266C181.063 389.001 200.355 370.546 200.355 347.782V315.64C200.355 298.279 186.458 297.853 186.458 297.853C194.43 297.853 200.891 291.485 200.891 283.63Z" fill="#B5E0F5"/>
<path d="M158.669 78.5838H88.6501C86.6257 78.5838 84.9854 77.0151 84.9854 75.0805V51.4264C84.9854 45.1156 90.3366 40 96.9371 40H150.382C156.983 40 162.334 45.1156 162.334 51.4264V75.0798C162.335 77.0151 160.694 78.5838 158.669 78.5838V78.5838Z" fill="#00A8CC"/>
<path d="M150.382 40H121.001C127.602 40 132.953 45.1156 132.953 51.4264V75.0798C132.953 77.0151 131.312 78.5838 129.288 78.5838H158.67C160.694 78.5838 162.335 77.0151 162.335 75.0798V51.4264C162.335 45.1156 156.984 40 150.382 40Z" fill="#0092B1"/>
</g>
<defs>
<linearGradient id="paint0_linear_3_201" x1="187.5" y1="0" x2="187.5" y2="812" gradientUnits="userSpaceOnUse">
<stop stop-color="#142850"/>
<stop offset="1" stop-color="#253B6E"/>
</linearGradient>
<clipPath id="clip0_3_201">
<rect width="375" height="349" fill="white" transform="translate(0 40)"/>
</clipPath>
</defs>
</svg>
