<svg width="16" height="22" viewBox="0 0 16 22" fill="none" xmlns="http://www.w3.org/2000/svg">
<path d="M14.75 0.5H1.25C1.14668 0.500096 1.0445 0.521515 0.949851 0.562918C0.855199 0.604321 0.770111 0.664816 0.699914 0.740617C0.629717 0.816418 0.575922 0.905892 0.541897 1.00344C0.507871 1.10099 0.494347 1.20451 0.502171 1.30752L2.00217 20.8075C2.01666 20.9959 2.10174 21.1719 2.24039 21.3003C2.37903 21.4287 2.56103 21.5 2.74999 21.5H13.25C13.4389 21.5 13.6209 21.4287 13.7596 21.3003C13.8982 21.1719 13.9833 20.9959 13.9978 20.8075L15.4978 1.30752C15.5056 1.20451 15.4921 1.10099 15.4581 1.00344C15.4241 0.905892 15.3703 0.816418 15.3001 0.740617C15.2299 0.664816 15.1448 0.604321 15.0501 0.562918C14.9555 0.521515 14.8533 0.500096 14.75 0.5ZM12.5556 20H3.44434L2.4452 7.00857C3.24883 6.6689 4.1129 6.49542 4.98537 6.49858C5.93346 6.54531 6.86259 6.7814 7.71799 7.19292C8.74184 7.67852 9.85314 7.95254 10.9854 7.99858C11.8427 8.00887 12.6958 7.87529 13.509 7.6034L12.5556 20ZM13.6356 5.95708C12.8105 6.3221 11.9169 6.50682 11.0146 6.49887C10.0685 6.45223 9.14135 6.21652 8.28784 5.80565C7.26225 5.31937 6.1491 5.04497 5.01499 4.99887C4.09929 4.98663 3.18864 5.13644 2.32512 5.44137L2.06 2H13.94L13.6356 5.95708Z" fill="#00A8CC"/>
</svg>
