<svg width="151" height="141" viewBox="0 0 151 141" fill="none" xmlns="http://www.w3.org/2000/svg">
<g clip-path="url(#clip0_359_7281)">
<path d="M74.9688 72.3827L79.3451 117.027L81.7331 134.842C82.0718 138.331 85.1272 141 88.7841 141H116.66C120.317 141 123.372 138.332 123.711 134.842L129.773 72.3824L102.416 63.6912L74.9688 72.3827Z" fill="#00A8CC"/>
<path d="M102.415 63.6912L96.4905 65.5676L117.942 72.3827L111.88 134.842C111.541 138.332 108.486 141 104.829 141H116.66C120.317 141 123.372 138.332 123.711 134.842L129.773 72.3824L102.415 63.6912Z" fill="#0092B1"/>
<path d="M132.176 47.6274H72.5423L74.9688 72.3827H129.773L132.176 47.6274Z" fill="#D2ECF9"/>
<path d="M120.345 47.6274L117.942 72.3827H129.773L132.176 47.6274H120.345Z" fill="#B5E0F5"/>
<path d="M63.3256 25.4033H60.1108V11.2062H39.4761V25.4033H36.2616C26.6791 25.4033 18.9109 32.8589 18.9109 42.0557V45.1259C18.9109 48.2685 21.5652 50.8159 24.8394 50.8159H74.7478C78.022 50.8159 80.6763 48.2685 80.6763 45.1259V42.0557C80.6763 32.8589 72.9081 25.4033 63.3256 25.4033Z" fill="#D2ECF9"/>
<path d="M63.3256 25.4033H60.1108V11.2062H48.2798V25.4033H51.4946C61.0771 25.4033 68.8454 32.8589 68.8454 42.0557V45.1259C68.8454 48.2685 66.1911 50.8159 62.9169 50.8159H74.7478C78.0221 50.8159 80.6763 48.2685 80.6763 45.1259V42.0557C80.6763 32.8589 72.9081 25.4033 63.3256 25.4033Z" fill="#B5E0F5"/>
<path d="M74.7176 81.1139H24.8696C21.5788 81.1139 18.9109 78.5549 18.9109 75.3984V56.5038C18.9109 53.3624 21.5661 50.8156 24.8412 50.8156H74.746C78.0211 50.8156 80.6763 53.3624 80.6763 56.5038V75.3984C80.6763 78.5552 78.0084 81.1139 74.7176 81.1139Z" fill="#00A8CC"/>
<path d="M74.7461 50.8159H62.9151C66.1902 50.8159 68.8454 53.3627 68.8454 56.5042V75.3987C68.8454 78.5552 66.1775 81.1142 62.8867 81.1142H74.7177C78.0085 81.1142 80.6763 78.5552 80.6763 75.3987V56.5042C80.6763 53.3627 78.0212 50.8159 74.7461 50.8159Z" fill="#0092B1"/>
<path d="M80.8923 98.4293C80.8923 95.2556 78.2903 92.683 75.0806 92.683C78.2903 92.683 80.8923 90.1101 80.8923 86.9366C80.8923 83.7631 78.2903 81.1902 75.0806 81.1902H24.6359C21.4262 81.1902 18.8243 83.7628 18.8243 86.9366C18.8243 90.1103 21.4262 92.683 24.6359 92.683C21.4262 92.683 18.8243 95.2559 18.8243 98.4293C18.8243 101.603 21.4262 104.176 24.6359 104.176C24.6359 104.176 18.9109 104.253 18.9109 111.362V124.348C18.9109 133.545 26.6791 141 36.2617 141H36.3181H63.2694H63.3256C72.9081 141 80.6764 133.544 80.6764 124.348V111.362C80.6764 104.348 75.0806 104.176 75.0806 104.176C78.2903 104.176 80.8923 101.603 80.8923 98.4293Z" fill="#D2ECF9"/>
<path d="M80.8923 98.4293C80.8923 95.2556 78.2903 92.6829 75.0806 92.6829C78.2903 92.6829 80.8923 90.1101 80.8923 86.9366C80.8923 83.7628 78.2903 81.1902 75.0806 81.1902H63.2496C66.4593 81.1902 69.0613 83.7628 69.0613 86.9366C69.0613 90.1103 66.4593 92.6829 63.2496 92.6829C66.4593 92.6829 69.0613 95.2556 69.0613 98.4293C69.0613 101.603 66.4593 104.176 63.2496 104.176C63.2496 104.176 68.8454 104.348 68.8454 111.362V124.347C68.8454 133.545 61.0771 141 51.4946 141H63.2694H63.3256C72.9081 141 80.6764 133.545 80.6764 124.347V111.362C80.6764 104.348 75.0806 104.176 75.0806 104.176C78.2903 104.176 80.8923 101.603 80.8923 98.4293Z" fill="#B5E0F5"/>
<path d="M63.8909 15.5883H35.6964C34.8813 15.5883 34.2208 14.9545 34.2208 14.1729V4.6164C34.2208 2.06677 36.3755 0 39.0334 0H60.5536C63.2118 0 65.3665 2.06677 65.3665 4.6164V14.1726C65.3668 14.9545 64.706 15.5883 63.8909 15.5883Z" fill="#00A8CC"/>
<path d="M60.5539 0H48.7229C51.381 0 53.5358 2.06677 53.5358 4.6164V14.1726C53.5358 14.9545 52.875 15.5883 52.0601 15.5883H63.8911C64.7063 15.5883 65.3668 14.9545 65.3668 14.1726V4.6164C65.3668 2.06677 63.212 0 60.5539 0Z" fill="#0092B1"/>
</g>
<defs>
<clipPath id="clip0_359_7281">
<rect width="151" height="141" fill="white"/>
</clipPath>
</defs>
</svg>
